<svg xmlns="http://www.w3.org/2000/svg" viewBox="41.18 44.86 15.96 15.96"><g><path d="m52.54 46.04c-1.38 0-2.66 0.65-3.33 1.38-0.77-0.82-2-1.38-3.27-1.38-2.49 0-4.45 1.91-4.45 4.62 0 1.82 0.76 3.52 2.33 5.07 1.44 1.45 3.48 2.95 4.8 3.74 0.43 0.26 0.9 0.23 1.35-0.03 1.39-0.92 3.4-2.47 4.83-3.97 1.45-1.53 2.04-3.16 2.04-4.86 0.01-2.78-1.8-4.57-4.3-4.57z" style="fill:var(--icon-body)"></path><path d="m50.08 56.84h-0.06c-0.32-0.03-0.55-0.27-0.62-0.58l-0.94-4.18-0.68 1.39c-0.12 0.23-0.37 0.34-0.65 0.34h-3.51c-0.46 0-0.7-0.27-0.7-0.68 0-0.44 0.35-0.78 0.79-0.78h3l1.32-2.77c0.12-0.28 0.41-0.4 0.71-0.37s0.49 0.24 0.54 0.55l0.95 4.12 0.59-1.2c0.11-0.24 0.33-0.33 0.6-0.33h3.21c0.47 0 0.79 0.27 0.79 0.71 0 0.43-0.39 0.73-0.84 0.73h-2.72l-1.14 2.62c-0.11 0.26-0.37 0.43-0.64 0.43z" style="fill:var(--icon-inner)"></path></g></svg>
