<svg id="icon" xmlns="http://www.w3.org/2000/svg" viewBox="20.89 44.37 18.15 18.15"><g><path d="m28.51 49.71h-2.27v-3.75c0-0.86 0.53-1.24 1.16-1.24s1.11 0.42 1.11 1.22v3.77z" style="fill:var(--icon-accent)"></path><path d="m33.76 49.71h-2.27v-3.75c0-0.86 0.55-1.24 1.18-1.24 0.65 0 1.09 0.42 1.09 1.22v3.77z" style="fill:var(--icon-accent)"></path><path d="m34.59 49.57h-9.17c-0.9 0-1.43 0.55-1.43 1.41v3.06c0 2.98 1.79 5.05 4.46 5.4v1.17c0 0.94 0.74 1.56 1.54 1.56 0.83 0 1.54-0.68 1.54-1.58v-1.16c2.73-0.5 4.4-2.56 4.4-5.34v-3.13c0.02-0.86-0.49-1.39-1.34-1.39z" style="fill:var(--icon-body)"></path><path d="m31.49 53.5h-1.04l0.39-1.66c0.13-0.55-0.52-0.73-0.79-0.35l-2.01 2.7c-0.27 0.38-0.04 0.81 0.49 0.81h0.91l-0.39 1.71c-0.11 0.58 0.57 0.78 0.9 0.35l1.92-2.66c0.27-0.41 0.13-0.9-0.38-0.9z" style="fill:var(--icon-inner)"></path></g></svg>
