<svg id="icon" overflow="visible" xmlns="http://www.w3.org/2000/svg" viewBox="2.97 13.06 21.30 21.30"><g><path d="m23.46 27.35c-2.13-3.13-5.27-8.23-6.25-11.01-0.56-1.59-2.03-1.9-3.64-1.9-1.53 0-3.03 0.44-3.55 1.97-0.89 2.57-4.4 8.28-6.3 10.94-0.34 0.48-0.41 1.12-0.28 1.7 0.27 1.2 1.31 2.7 2.28 3.44 0.52 0.38 1.18 0.54 1.81 0.46 4.01-0.53 8.14-0.51 12.14 0 0.7 0.09 1.41-0.13 1.99-0.56 0.98-0.77 1.93-2.13 2.16-3.23 0.11-0.64-0.01-1.29-0.36-1.81z" style="fill:var(--icon-body)"></path><path d="m12.59 22.36-1.63 2.8c-0.43 0.76 0.07 1.64 0.96 1.64h3.43c0.93 0 1.4-0.86 0.96-1.62l-1.69-2.83c-0.44-0.73-1.6-0.72-2.03 0.01z" style="fill:var(--icon-inner)"></path><circle cx="13.6" cy="29.12" r="1.014" style="fill:var(--icon-inner)"></circle></g></svg>
