<svg id="icon" overflow="visible" xmlns="http://www.w3.org/2000/svg" viewBox="60.71 19.79 16.88 16.88"><g><path d="m74.37 20.42h-10.44c-1.69 0-2.9 1.3-2.9 2.9v6.39c0 1.71 1.35 2.97 2.94 2.97h6.69l3.39 3.07c0.72 0.62 1.72 0.22 1.72-0.83v-2.56c1-0.51 1.49-1.51 1.49-2.7v-6.34c0-1.64-1.24-2.9-2.89-2.9z" style="fill:var(--icon-body)"></path><path d="m68.43 23.1c-0.41 0-0.65 0.2-0.76 0.61l-1.32 4.28-1.32-4.28c-0.11-0.42-0.4-0.61-0.82-0.61-0.6 0-0.94 0.47-0.8 0.97l1.92 5.68c0.15 0.48 0.56 0.69 1.07 0.69 0.49 0 0.88-0.25 1.03-0.72l1.77-5.65c0.16-0.58-0.12-0.97-0.77-0.97z" style="fill:var(--icon-inner)"></path><path d="m74.87 29.23-1.21-1.86c0.91-0.33 1.32-1.06 1.32-2.07 0-1.36-0.94-2.21-2.37-2.21h-2c-0.53 0-0.76 0.26-0.76 0.82v5.7c0 0.55 0.37 0.81 0.85 0.81s0.76-0.27 0.76-0.81v-2.01h0.63l1.35 2.38c0.22 0.43 0.77 0.51 1.2 0.26 0.37-0.25 0.43-0.65 0.23-1.01zm-2.47-3.05h-0.97v-1.6h0.99c0.66 0 0.92 0.26 0.92 0.78 0 0.57-0.26 0.82-0.94 0.82z" style="fill:var(--icon-inner)"></path></g></svg>
